{"title":"Kill.Your.Darlings.2013.BRRip.720p.x264.AAC-PRiSTiNE [P2PDL]","uid":9681896,"size":653718214,"categoryP":"video","categoryS":"hd___movies","magnet":"?xt=urn:btih:b64e79887b874cbd553a31353f3ee559a17990a0&amp;dn=Kill.Your.Darlings.2013.BRRip.720p.x264.AAC-PRiSTiNE+%5BP2PDL%5D&amp;tr=udp%3A%2F%2Ftracker.openbittorrent.com%3A80&amp;tr=udp%3A%2F%2Fopen.demonii.com%3A1337&amp;tr=udp%3A%2F%2Ftracker.coppersurfer.tk%3A6969&amp;tr=udp%3A%2F%2Fexodus.desync.com%3A6969","seeders":1,"leechers":0,"uploader":"ValidusVyto","files":-1,"time":1393635504,"description":"Kill.Your.Darlings.2013.BRRip.720p.x264.AAC-PRiSTiNE\n\n\nGenre: Biography | Drama | Romance &lt;a href=&quot;\nhttp://www.imdb.com/title/tt1311071/&quot; rel=&quot;nofollow&quot; target=&quot;_NEW&quot;&gt;\nhttp://www.imdb.com/title/tt1311071/&lt;/a&gt;\n\n\nFormat                                   : MPEG-4\nFile size                                : 606 MiB\nDuration                                 : 1h 42mn\nOverall bit rate mode                    : Variable\nOverall bit rate                         : 825 Kbps\n\nVideo\nFormat                                   : AVC\nBit rate                                 : 740 Kbps\nWidth                                    : 1 280 pixels\nHeight                                   : 528 pixels\nDisplay aspect ratio                     : 2.40:1\nFrame rate mode                          : Variable\nFrame rate                               : 23.976 fps\nBit depth                                : 8 bits\nStream size                              : 544 MiB (90%)\nWriting library                          : x264 core 142 r2389 956c8d8\n\nAudio\nFormat                                   : AAC\nBit rate                                 : 80.0 Kbps\nChannel(s)                               : 2 channels\nChannel positions                        : Front: L R\nSampling rate                            : 48.0 KHz\nStream size                              : 58.8 MiB (10%)\nLanguage                                 : English\n\nSubtitle                                 : Yes (English)\n &lt;a href=&quot;\nhttp://someimage.com/y8ywiUN&quot; rel=&quot;nofollow&quot; target=&quot;_NEW&quot;&gt;\nhttp://someimage.com/y8ywiUN&lt;/a&gt; &lt;a href=&quot;\nhttp://someimage.com/K6KXmtG&quot; rel=&quot;nofollow&quot; target=&quot;_NEW&quot;&gt;\nhttp://someimage.com/K6KXmtG&lt;/a&gt; &lt;a href=&quot;\nhttp://someimage.com/1Mp8p3s&quot; rel=&quot;nofollow&quot; target=&quot;_NEW&quot;&gt;\nhttp://someimage.com/1Mp8p3s&lt;/a&gt; &lt;a href=&quot;\nhttp://someimage.com/ZUbL59A&quot; rel=&quot;nofollow&quot; target=&quot;_NEW&quot;&gt;\nhttp://someimage.com/ZUbL59A&lt;/a&gt; &lt;a href=&quot;\nhttp://someimage.com/V5K97q4&quot; rel=&quot;nofollow&quot; target=&quot;_NEW&quot;&gt;\nhttp://someimage.com/V5K97q4&lt;/a&gt; &lt;a href=&quot;\nhttp://someimage.com/hS6Sx57&quot; rel=&quot;nofollow&quot; target=&quot;_NEW&quot;&gt;\nhttp://someimage.com/hS6Sx57&lt;/a&gt;\n","torrent":{"xt":"urn:btih:b64e79887b874cbd553a31353f3ee559a17990a0","amp;dn":"Kill.Your.Darlings.2013.BRRip.720p.x264.AAC-PRiSTiNE+%5BP2PDL%5D","amp;tr":["udp%3A%2F%2Ftracker.openbittorrent.com%3A80","udp%3A%2F%2Fopen.demonii.com%3A1337","udp%3A%2F%2Ftracker.coppersurfer.tk%3A6969","udp%3A%2F%2Fexodus.desync.com%3A6969"],"infoHash":"b64e79887b874cbd553a31353f3ee559a17990a0","infoHashBuffer":{"type":"Buffer","data":[182,78,121,136,123,135,76,189,85,58,49,53,63,62,229,89,161,121,144,160]},"announce":[],"urlList":[]}}